<svg width="150" height="47" xmlns="http://www.w3.org/2000/svg">
  <path fill="#44459c" d="M19.004339 15.97988v4.69599c0 1.11733-.768 2.05333-1.87866 2.29866v1.968c1.08.22533 1.87866 1.17466 1.87866 2.31199v3.76666c0 2.32533 1.892 4.21732 4.21732 4.21732h2.45467v-1.84799h-2.45467c-1.30666 0-2.36932-1.06267-2.36932-2.36933v-3.76666c0-1.10399-.428-2.14933-1.20533-2.94532l-.336-.344.336-.344c.77733-.79333 1.20533-1.83866 1.20533-2.94533v-4.69599c0-1.30666 1.06266-2.36932 2.36932-2.36932h2.45467v-1.84933h-2.45467c-2.32532 0-4.21732 1.89333-4.21732 4.21865m111.98999 3.76693v-3.76666c0-2.32533-1.892-4.21866-4.21732-4.21866h-2.45466v1.848h2.45466c1.30666 0 2.37066 1.06266 2.37066 2.37066v3.76666c0 1.104.428 2.14933 1.20399 2.94399l.336.344-.336.344c-.77599.79466-1.20399 1.83999-1.20399 2.94532v4.69733c0 1.30666-1.064 2.36799-2.37066 2.36799h-2.45466v1.84933h2.45466c2.32532 0 4.21732-1.892 4.21732-4.21732v-4.69733c0-1.11733.768-2.05199 1.87999-2.29866V22.0588c-1.08133-.22533-1.87999-1.17333-1.87999-2.31199m-97.93656-2.1172h-1.84666v11.56531h9.37864v-1.84933h-7.53198v-9.71598zm12.40371 11.56531h1.84666V17.62961h-1.84666v11.56531zm55.32652 0h1.84667V17.62961h-1.84667v11.56531zm-6.56531 0h1.47333v-1.36133h-1.47333v1.36133zm14.00743-9.71771h4.66799v9.74264h1.84799v-9.74264h4.66932v-1.848h-11.1853v1.848zm-39.15537 9.71771h1.84666V17.62961h-1.84666v11.56531zm-7.05292-5.83879l-7.22798-1.68266v-2.19599h8.45731v-1.848h-8.64131c-.91733 0-1.66266.74666-1.66266 1.66266v2.416c0 .83599.60267 1.59199 1.41466 1.75999l7.22665 1.68266v2.196h-8.45598v1.84799h8.63998c.91733 0 1.664-.74666 1.664-1.66266v-2.41599c0-.836-.604-1.592-1.41467-1.76m25.35701-5.72652l-2.57066 4.92532h-5.70799v-4.92532h-1.84799v11.56531h1.84799v-4.79066h5.70932l2.56933 4.79066h2.08666l-3.05466-5.71465 3.05466-5.85066h-2.08666z"/>
</svg>
